<?xml version="1.0" standalone="no"?><!DOCTYPE svg PUBLIC "-//W3C//DTD SVG 1.1//EN" "http://www.w3.org/Graphics/SVG/1.1/DTD/svg11.dtd"><svg t="1699987986314" class="icon" viewBox="0 0 1024 1024" version="1.1" xmlns="http://www.w3.org/2000/svg" p-id="8640" xmlns:xlink="http://www.w3.org/1999/xlink" width="200" height="200"><path d="M274.5344 582.0928h480.9728v265.0624H274.5344z" fill="#D9FFEC" p-id="8641"></path><path d="M852.6336 539.9552H177.408c-43.9296 0-79.6672-35.7376-79.6672-79.6672V335.8208c0-43.9296 35.7376-79.6672 79.6672-79.6672h159.8976V175.7184c0-48.5376 39.4752-88.064 88.064-88.064h179.3536c48.5376 0 88.064 39.4752 88.064 88.064v80.4864h159.8976c43.9296 0 79.6672 35.7376 79.6672 79.6672v124.5184c-0.0512 43.8784-35.7888 79.5648-79.7184 79.5648z m-672.9728-81.92h670.72V338.1248H651.776c-22.6304 0-40.96-18.3296-40.96-40.96V175.7184c0-3.3792-2.7648-6.144-6.144-6.144H425.3696c-3.3792 0-6.144 2.7648-6.144 6.144v121.4464c0 22.6304-18.3296 40.96-40.96 40.96H179.6608v119.9104z" fill="#34333A" p-id="8642"></path><path d="M390.5536 889.9072c-22.6304 0-40.96-18.3296-40.96-40.96v-173.6704c0-22.6304 18.3296-40.96 40.96-40.96s40.96 18.3296 40.96 40.96v173.6704c0 22.6304-18.3296 40.96-40.96 40.96z" fill="#3AD285" p-id="8643"></path><path d="M797.7472 932.1472H232.2944c-53.1456 0-96.3584-43.2128-96.3584-96.3584v-255.9488h81.92v255.9488c0 7.9872 6.5024 14.4384 14.4384 14.4384H797.696c7.9872 0 14.4384-6.5024 14.4384-14.4384v-255.9488h81.92v255.9488c0.0512 53.0944-43.1616 96.3584-96.3072 96.3584z" fill="#34333A" p-id="8644"></path></svg>